HIERARCHY
ROOT Hips
{
	OFFSET 0.000000 0.000000 0.000000 
	CHANNELS 6 Xposition Yposition Zposition Zrotation Yrotation Xrotation
	JOINT LeftUpLeg
	{
		OFFSET 1.363060 -1.794630 0.839290 
		CHANNELS 3 Zrotation Yrotation Xrotation
		JOINT LeftLeg
		{
			OFFSET 2.448110 -6.726130 0.000000 
			CHANNELS 3 Zrotation Yrotation Xrotation
			JOINT LeftFoot
			{
				OFFSET 2.562200 -7.039590 0.000000 
				CHANNELS 3 Zrotation Yrotation Xrotation
				JOINT LeftToeBase
				{
					OFFSET 0.157640 -0.433110 2.322550 
					CHANNELS 3 Zrotation Yrotation Xrotation
					End Site
					{
						OFFSET 0.000000 0.000000 0.000000 
					}
				}
			}
		}
	}
	JOINT RightUpLeg
	{
		OFFSET -1.305520 -1.794630 0.839290 
		CHANNELS 3 Zrotation Yrotation Xrotation
		JOINT RightLeg
		{
			OFFSET -2.542530 -6.985550 0.000000 
			CHANNELS 3 Zrotation Yrotation Xrotation
			JOINT RightFoot
			{
				OFFSET -2.568260 -7.056230 0.000000 
				CHANNELS 3 Zrotation Yrotation Xrotation
				JOINT RightToeBase
				{
					OFFSET -0.164730 -0.452590 2.363150 
					CHANNELS 3 Zrotation Yrotation Xrotation
					End Site
					{
						OFFSET 0.000000 0.000000 0.000000 
					}
				}
			}
		}
	}
	JOINT Spine
	{
		OFFSET 0.028270 2.035590 -0.193380 
		CHANNELS 3 Zrotation Yrotation Xrotation
		JOINT Spine1
		{
			OFFSET 0.056720 2.048850 -0.042750 
			CHANNELS 3 Zrotation Yrotation Xrotation
			JOINT Neck1
			{
				OFFSET -0.054170 1.746240 0.172020 
				CHANNELS 3 Zrotation Yrotation Xrotation
				JOINT Head
				{
					OFFSET 0.104070 1.761360 -0.123970 
					CHANNELS 3 Zrotation Yrotation Xrotation
					End Site
					{
						OFFSET 0.000000 0.000000 0.000000 
					}
				}
			}
			JOINT LeftArm
			{
				OFFSET 3.362410 1.200890 -0.311210 
				CHANNELS 3 Zrotation Yrotation Xrotation
				JOINT LeftForeArm
				{
					OFFSET 4.983000 -0.000000 -0.000000 
					CHANNELS 3 Zrotation Yrotation Xrotation
					JOINT LeftHand
					{
						OFFSET 3.483560 -0.000000 -0.000000 
						CHANNELS 3 Zrotation Yrotation Xrotation
						JOINT LeftHandIndex1
						{
							OFFSET 0.715260 -0.000000 -0.000000 
							CHANNELS 3 Zrotation Yrotation Xrotation
							End Site
							{
								OFFSET 0.000000 0.000000 0.000000 
							}
						}
					}
				}
			}
			JOINT RightArm
			{
				OFFSET -3.136600 1.374050 -0.404650 
				CHANNELS 3 Zrotation Yrotation Xrotation
				JOINT RightForeArm
				{
					OFFSET -5.241900 -0.000000 -0.000000 
					CHANNELS 3 Zrotation Yrotation Xrotation
					JOINT RightHand
					{
						OFFSET -3.444170 -0.000000 -0.000000 
						CHANNELS 3 Zrotation Yrotation Xrotation
						JOINT RightHandIndex1
						{
							OFFSET -0.622530 -0.000000 -0.000000 
							CHANNELS 3 Zrotation Yrotation Xrotation
							End Site
							{
								OFFSET 0.000000 0.000000 0.000000 
							}
						}
					}
				}
			}
		}
	}
}
MOTION
Frames: 18
Frame Time: 0.041667
0.534845 16.415451 -14.648503 -2.753758 0.758134 26.295900 -10.529374 -7.273781 -51.627371 6.668188 16.936723 50.249859 -0.598510 11.651737 -23.732856 0.727600 -5.450100 -15.197000 15.893633 15.078662 -51.689050 -7.256434 -17.667900 52.188321 -1.535131 -4.334037 -27.375003 -0.005400 0.476400 -1.309100 1.749062 0.432140 -0.868796 2.432639 -0.235736 3.089798 1.774111 0.731640 9.897585 -0.352400 0.420900 4.722000 -95.235364 -6.585735 24.433633 6.659206 -15.233903 -0.890652 -0.147036 -0.657616 -7.081526 -7.125000 0.000000 0.000000 91.563613 5.896100 8.915058 -10.138854 21.461967 -2.282687 0.750282 0.877668 32.725867 7.125000 0.000000 0.000000 
0.526826 16.408244 -14.568819 -2.752017 0.799478 26.323804 -10.488106 -7.318555 -51.385752 6.699110 16.955799 50.359425 -0.575492 11.648472 -23.896110 0.721400 -5.427200 -15.131200 16.001259 15.025438 -51.454570 -7.290560 -17.683604 52.304001 -1.555663 -4.391955 -27.576773 -0.005400 0.474100 -1.302600 1.747222 0.434353 -0.884876 2.426177 -0.232193 3.058923 1.761784 0.728517 9.873497 -0.358100 0.417800 4.718100 -95.281263 -6.589655 24.114498 6.616029 -15.152630 -0.877782 -0.147525 -0.657326 -6.974265 -7.125000 0.000000 0.000000 91.548793 5.955274 8.962469 -10.138259 21.457471 -2.282170 0.749742 0.877887 32.688785 7.125000 0.000000 0.000000 
0.518807 16.399007 -14.486699 -2.749492 0.832931 26.356250 -10.448657 -7.363725 -51.153122 6.738438 16.980935 50.497059 -0.552643 11.649286 -24.060300 0.717400 -5.412800 -15.089700 16.104453 14.977156 -51.231130 -7.332286 -17.704894 52.444837 -1.574526 -4.451520 -27.766556 -0.005300 0.469600 -1.290300 1.744616 0.435686 -0.902902 2.420128 -0.229277 3.025500 1.750748 0.723580 9.860634 -0.364200 0.414000 4.722000 -95.332076 -6.585732 23.750156 6.562499 -15.052116 -0.861630 -0.149224 -0.656830 -6.824527 -7.125000 0.000000 0.000000 91.542185 6.022339 8.968860 -10.125725 21.433340 -2.276825 0.749265 0.877985 32.676830 7.125000 0.000000 0.000000 
0.510788 16.387029 -14.402448 -2.751883 0.858558 26.401319 -10.402351 -7.411845 -50.942928 6.787941 17.013629 50.667429 -0.533072 11.660971 -24.215313 0.714700 -5.402700 -15.060700 16.205582 14.940183 -51.031273 -7.382883 -17.733111 52.614646 -1.591573 -4.510471 -27.942892 -0.005000 0.458200 -1.258900 1.742226 0.437506 -0.923574 2.415939 -0.225938 2.990416 1.746151 0.716545 9.851998 -0.366700 0.409500 4.728500 -95.390049 -6.578747 23.335191 6.495736 -14.926940 -0.841431 -0.152538 -0.655868 -6.618445 -7.125000 0.000000 0.000000 91.539611 6.097352 8.949405 -10.102811 21.392072 -2.267069 0.749367 0.877914 32.679583 7.125000 0.000000 0.000000 
0.502972 16.372310 -14.316369 -2.762787 0.877586 26.447922 -10.347317 -7.457294 -50.745562 6.848274 17.053834 50.872693 -0.513268 11.671278 -24.366263 0.711700 -5.391600 -15.028900 16.312089 14.912421 -50.842107 -7.442603 -17.768269 52.815176 -1.606512 -4.575257 -28.109942 -0.004700 0.440600 -1.210800 1.740157 0.441762 -0.945513 2.411129 -0.221254 2.951800 1.748307 0.707705 9.849125 -0.364700 0.404300 4.738300 -95.457854 -6.573304 22.861844 6.417861 -14.779963 -0.818480 -0.156388 -0.654428 -6.343211 -7.125000 0.000000 0.000000 91.539994 6.183118 8.911545 -10.068839 21.332598 -2.252542 0.750107 0.877880 32.690903 7.125000 0.000000 0.000000 
0.495257 16.354445 -14.228260 -2.783147 0.885820 26.503537 -10.282810 -7.499287 -50.572943 6.920622 17.102463 51.115816 -0.495741 11.685036 -24.501918 0.707500 -5.376100 -14.984400 16.421531 14.898198 -50.674581 -7.512496 -17.811033 53.049154 -1.619042 -4.646341 -28.267419 -0.004000 0.410500 -1.128100 1.738909 0.448616 -0.970220 2.409526 -0.215316 2.908233 1.756161 0.700044 9.853916 -0.359300 0.399900 4.753800 -95.535292 -6.567475 22.329845 6.327384 -14.608332 -0.792076 -0.162014 -0.652236 -6.002526 -7.125000 0.000000 0.000000 91.539793 6.282379 8.862408 -10.021950 21.251564 -2.232370 0.751963 0.877648 32.714764 7.125000 0.000000 0.000000 
0.487644 16.333331 -14.139238 -2.817713 0.891888 26.557344 -10.201450 -7.540869 -50.417607 7.005615 17.159486 51.398030 -0.480882 11.699460 -24.615217 0.703400 -5.360600 -14.940100 16.543854 14.892567 -50.519633 -7.592640 -17.861082 53.317637 -1.627005 -4.735428 -28.416161 -0.003400 0.374400 -1.028600 1.738714 0.462106 -0.997432 2.405003 -0.205565 2.851299 1.764129 0.697392 9.864588 -0.351100 0.397800 4.771100 -95.621968 -6.571954 21.754473 6.223939 -14.410469 -0.763177 -0.166957 -0.649458 -5.618944 -7.125000 0.000000 0.000000 91.534470 6.378034 8.836512 -9.975356 21.170321 -2.211744 0.754328 0.878535 32.706378 7.125000 0.000000 0.000000 
0.480335 16.309172 -14.048185 -2.860257 0.889667 26.612618 -10.114542 -7.575263 -50.279447 7.103320 17.224573 51.719258 -0.468702 11.712973 -24.704330 0.697700 -5.339300 -14.878800 16.670834 14.894467 -50.376308 -7.683185 -17.918211 53.620381 -1.630026 -4.847926 -28.559430 -0.002700 0.335000 -0.920400 1.739029 0.477081 -1.027615 2.400092 -0.194796 2.784126 1.770008 0.698922 9.885300 -0.343200 0.397600 4.795800 -95.719158 -6.587820 21.112415 6.106762 -14.184527 -0.730857 -0.172901 -0.645909 -5.172242 -7.125000 0.000000 0.000000 91.530101 6.492223 8.802132 -9.913971 21.063748 -2.184573 0.757905 0.879286 32.711132 7.125000 0.000000 0.000000 
0.473128 16.281866 -13.955204 -2.913271 0.878451 26.676312 -10.019912 -7.598538 -50.168620 7.214314 17.297817 52.081120 -0.459475 11.725724 -24.768641 0.690000 -5.310500 -14.796300 16.803073 14.907844 -50.253554 -7.784145 -17.982616 53.958206 -1.623954 -5.002421 -28.694749 -0.002300 0.309500 -0.850200 1.739616 0.498503 -1.062365 2.393434 -0.180571 2.703660 1.767124 0.702563 9.924204 -0.341100 0.398100 4.833700 -95.821668 -6.622408 20.420656 5.973659 -13.926185 -0.694711 -0.179697 -0.641475 -4.668216 -7.125000 0.000000 0.000000 91.527822 6.623386 8.744572 -9.838430 20.932652 -2.151579 0.762525 0.879762 32.734805 7.125000 0.000000 0.000000 
0.466023 16.251414 -13.860396 -2.975109 0.858613 26.749154 -9.920254 -7.607503 -50.083702 7.338747 17.378879 52.484326 -0.450037 11.735257 -24.824869 0.678600 -5.267200 -14.672400 16.939106 14.932106 -50.151253 -7.895459 -18.054164 54.330875 -1.610037 -5.202626 -28.834430 -0.002300 0.308300 -0.847000 1.740832 0.526606 -1.102920 2.387924 -0.162848 2.604643 1.756109 0.706820 9.972134 -0.343900 0.398500 4.877900 -95.930762 -6.680653 19.668237 5.821235 -13.628200 -0.654262 -0.187878 -0.635641 -4.071289 -7.125000 0.000000 0.000000 91.525773 6.765223 8.664648 -9.752126 20.781924 -2.113838 0.768132 0.880108 32.773621 7.125000 0.000000 0.000000 
0.458714 16.217916 -13.763659 -3.042300 0.825923 26.833009 -9.823485 -7.594331 -50.027450 7.476581 17.467305 52.929321 -0.443727 11.763953 -24.888360 0.666200 -5.220000 -14.537000 17.074791 14.969256 -50.071647 -8.017278 -18.132847 54.738494 -1.591306 -5.441105 -28.988605 -0.002600 0.328200 -0.901900 1.741540 0.563866 -1.149330 2.382668 -0.140279 2.487941 1.738645 0.710409 10.033760 -0.351400 0.398200 4.932200 -96.040651 -6.767047 18.861056 5.650346 -13.291911 -0.610055 -0.197454 -0.628314 -3.338804 -7.125000 0.000000 0.000000 91.528993 6.917608 8.547934 -9.659662 20.618443 -2.073947 0.774091 0.879708 32.832187 7.125000 0.000000 0.000000 
0.451203 16.181475 -13.665196 -3.115676 0.779407 26.934544 -9.728651 -7.557038 -50.007151 7.627757 17.562956 53.416011 -0.439876 11.817553 -24.972262 0.653600 -5.171300 -14.397900 17.209855 15.023259 -50.021358 -8.149348 -18.218283 55.179340 -1.570930 -5.711479 -29.169881 -0.003200 0.362800 -0.996700 1.742161 0.613332 -1.203255 2.380003 -0.111598 2.348931 1.714654 0.713083 10.106545 -0.363600 0.397100 4.995300 -96.153310 -6.887367 17.971783 5.459308 -12.912466 -0.561989 -0.209459 -0.618686 -2.405061 -7.125000 0.000000 0.000000 91.536643 7.079347 8.380450 -9.565167 20.448397 -2.033697 0.779847 0.878294 32.912414 7.125000 0.000000 0.000000 
0.443488 16.142395 -13.564906 -3.197453 0.723166 27.046233 -9.649908 -7.463527 -49.925500 7.711755 17.608340 53.675817 -0.463641 11.885926 -24.904848 0.640800 -5.121200 -14.254600 17.367007 15.065056 -49.895611 -8.210750 -18.254849 55.389473 -1.522758 -6.012055 -29.222924 -0.003600 0.390100 -1.072000 1.742750 0.673266 -1.264449 2.377288 -0.077176 2.186097 1.693041 0.711775 10.192299 -0.375100 0.394100 5.068900 -96.269744 -7.043648 16.959075 5.250853 -12.493388 -0.511315 -0.223951 -0.606505 -1.204311 -7.125000 0.000000 0.000000 91.549641 7.241911 8.175214 -9.479242 20.289161 -1.997766 0.784379 0.876021 32.991526 7.125000 0.000000 0.000000 
0.435672 16.101284 -13.462688 -3.284438 0.652921 27.167977 -9.579255 -7.336355 -49.867413 7.806365 17.659445 53.970796 -0.483725 11.965752 -24.880442 0.627800 -5.070000 -14.108400 17.526288 15.123007 -49.779755 -8.278890 -18.296225 55.621945 -1.483148 -6.308131 -29.323980 -0.004000 0.406600 -1.117200 1.743592 0.744833 -1.333289 2.379483 -0.037078 1.995221 1.675735 0.708795 10.293136 -0.384100 0.390200 5.155300 -96.393006 -7.233040 15.783589 5.028125 -12.039231 -0.458633 -0.241992 -0.591040 0.293446 -7.125000 0.000000 0.000000 91.562814 7.396766 7.957002 -9.415800 20.162984 -1.971255 0.786533 0.873845 33.026129 7.125000 0.000000 0.000000 
0.425826 16.170005 -13.349405 -3.383615 0.575272 27.300678 -9.602500 -7.075465 -49.415362 7.768967 17.610242 53.840589 -0.515872 12.075712 -24.862656 0.617900 -5.030700 -13.996200 17.807663 15.104947 -49.219954 -8.210205 -18.234956 55.410262 -1.440555 -6.624003 -29.442664 -0.004000 0.409100 -1.124000 1.745276 0.828083 -1.411164 2.386632 0.008882 1.769079 1.675594 0.699414 10.409324 -0.383700 0.383700 5.255400 -96.521422 -7.453599 14.433539 4.799235 -11.564575 -0.406150 -0.261900 -0.572827 2.038401 -7.125000 0.000000 0.000000 91.574828 7.542395 7.734288 -9.376265 20.071960 -1.954619 0.786726 0.871500 33.002966 7.125000 0.000000 0.000000 
0.417806 16.126864 -13.242416 -3.490518 0.486407 27.432468 -9.543628 -6.865760 -49.382669 7.876808 17.666765 54.179334 -0.525718 12.161856 -24.919689 0.611900 -5.006600 -13.927400 17.983627 15.206848 -49.084736 -8.282184 -18.279314 55.656058 -1.416108 -6.903787 -29.618775 -0.003600 0.385000 -1.057800 1.748567 0.919910 -1.496907 2.400550 0.059139 1.507878 1.688065 0.689678 10.537707 -0.375500 0.377100 5.369500 -96.657090 -7.706327 12.901653 4.570863 -11.082548 -0.355074 -0.282946 -0.552398 3.949446 -7.125000 0.000000 0.000000 91.581873 7.688262 7.518953 -9.358172 20.011550 -1.946355 0.785684 0.868879 32.924938 7.125000 0.000000 0.000000 
0.409787 16.082505 -13.133396 -3.611768 0.393294 27.565913 -9.483953 -6.614421 -49.361105 7.990380 17.724541 54.535726 -0.532525 12.258017 -25.014431 0.616000 -5.023200 -13.974800 18.172427 15.337578 -48.934499 -8.354267 -18.323662 55.902637 -1.393675 -7.188316 -29.812292 -0.002900 0.347400 -0.954500 1.753878 1.020193 -1.590794 2.421037 0.113593 1.210884 1.716679 0.677152 10.675953 -0.358800 0.369700 5.497100 -96.791433 -7.990373 11.257116 4.351864 -10.611615 -0.307063 -0.303399 -0.530930 5.847824 -7.125000 0.000000 0.000000 91.580889 7.837026 7.322460 -9.359885 19.979127 -1.945429 0.784953 0.865245 32.811777 7.125000 0.000000 0.000000 
0.401565 16.036826 -13.022143 -3.748971 0.298575 27.708764 -9.403200 -6.354806 -49.434488 8.186546 17.835666 55.164250 -0.502446 12.355924 -25.344498 0.633900 -5.094300 -14.177800 18.357681 15.527941 -48.861130 -8.503577 -18.419832 56.400134 -1.405490 -7.464219 -30.190966 -0.002300 0.310500 -0.853100 1.761380 1.127299 -1.692693 2.446762 0.171695 0.882675 1.758575 0.662816 10.811904 -0.335800 0.361800 5.631200 -96.915559 -8.308430 9.598783 4.149734 -10.169689 -0.263490 -0.321754 -0.509878 7.536662 -7.125000 0.000000 0.000000 91.570145 7.991620 7.160065 -9.376270 19.966976 -1.949464 0.786488 0.859431 32.697854 7.125000 0.000000 0.000000 
